<svg id="svg" version="1.1" xmlns="http://www.w3.org/2000/svg" xmlns:xlink="http://www.w3.org/1999/xlink" width="400" height="708.5271317829457" viewBox="0, 0, 400,708.5271317829457"><g id="svgg"><path id="path0" d="M196.000 128.128 C 195.890 128.241,193.550 128.541,190.800 128.795 C 188.050 129.050,185.170 129.504,184.400 129.804 C 183.630 130.104,182.106 130.467,181.014 130.612 C 179.922 130.756,178.667 131.128,178.225 131.437 C 177.783 131.747,177.054 132.000,176.605 132.000 C 176.156 132.000,175.116 132.360,174.296 132.800 C 173.475 133.240,172.577 133.598,172.301 133.595 C 171.784 133.591,165.831 136.566,163.000 138.245 C 162.120 138.766,160.942 139.420,160.382 139.697 C 159.822 139.973,159.102 140.426,158.782 140.702 C 158.462 140.978,157.120 142.013,155.800 143.002 C 154.480 143.991,152.997 145.115,152.504 145.500 C 151.538 146.255,144.858 152.843,144.200 153.690 C 140.664 158.242,138.743 160.888,138.351 161.747 C 138.088 162.326,137.738 162.800,137.575 162.800 C 137.412 162.800,137.074 163.295,136.823 163.900 C 136.573 164.505,135.929 165.720,135.392 166.600 C 134.855 167.480,134.303 168.470,134.164 168.800 C 134.026 169.130,133.464 170.390,132.916 171.600 C 132.368 172.810,131.679 174.340,131.385 175.000 C 131.091 175.660,130.732 176.830,130.586 177.600 C 130.441 178.370,130.097 179.360,129.823 179.800 C 129.549 180.240,129.201 181.410,129.049 182.400 C 128.897 183.390,128.528 184.920,128.228 185.800 C 126.176 191.815,126.171 211.050,128.219 217.600 C 128.529 218.590,128.901 220.175,129.046 221.123 C 129.191 222.070,129.645 223.504,130.055 224.307 C 130.465 225.111,130.800 226.170,130.800 226.661 C 130.800 227.151,130.975 227.661,131.189 227.793 C 131.403 227.926,131.780 228.791,132.026 229.717 C 132.273 230.643,132.726 231.682,133.032 232.026 C 133.339 232.371,133.705 233.226,133.845 233.926 C 133.985 234.627,134.244 235.200,134.419 235.200 C 134.594 235.200,134.946 235.830,135.200 236.600 C 135.454 237.370,135.783 238.001,135.931 238.001 C 136.079 238.002,136.740 239.037,137.400 240.301 C 138.060 241.566,138.915 242.835,139.300 243.123 C 139.685 243.410,140.000 243.890,140.000 244.189 C 140.000 244.489,140.135 244.793,140.300 244.867 C 140.465 244.940,141.631 246.350,142.892 248.000 C 145.464 251.367,154.181 260.000,155.008 260.000 C 155.266 260.000,157.024 261.315,158.400 262.537 C 158.730 262.830,159.270 263.185,159.600 263.327 C 159.930 263.468,160.920 264.038,161.800 264.594 C 162.680 265.150,163.973 265.871,164.673 266.196 C 165.373 266.522,166.046 266.951,166.169 267.150 C 166.292 267.349,166.889 267.635,167.496 267.787 C 168.103 267.938,168.870 268.302,169.200 268.594 C 169.530 268.886,170.557 269.327,171.483 269.574 C 172.409 269.820,173.274 270.197,173.407 270.411 C 173.539 270.625,174.049 270.800,174.539 270.800 C 175.030 270.800,176.096 271.139,176.909 271.554 C 177.722 271.968,179.207 272.430,180.209 272.580 C 181.211 272.731,182.609 273.088,183.315 273.375 C 184.022 273.661,185.774 274.010,187.209 274.150 C 188.643 274.289,191.073 274.670,192.609 274.995 C 195.757 275.662,203.544 275.757,206.600 275.165 C 207.700 274.953,210.130 274.585,212.000 274.349 C 213.870 274.113,216.120 273.673,217.000 273.373 C 217.880 273.073,219.375 272.706,220.323 272.559 C 221.270 272.411,222.704 271.955,223.507 271.545 C 224.311 271.135,225.253 270.800,225.600 270.800 C 225.947 270.800,226.937 270.440,227.800 270.000 C 228.663 269.560,229.691 269.200,230.085 269.200 C 230.478 269.200,230.800 269.034,230.800 268.831 C 230.800 268.628,231.475 268.245,232.300 267.980 C 233.125 267.716,234.070 267.286,234.400 267.027 C 234.730 266.767,235.450 266.337,236.000 266.071 C 237.387 265.399,240.656 263.288,243.077 261.500 C 244.193 260.675,245.189 260.000,245.289 260.000 C 245.950 260.000,257.231 248.726,258.600 246.698 C 261.272 242.738,262.771 240.426,263.200 239.600 C 263.486 239.050,263.835 238.510,263.975 238.400 C 264.200 238.224,267.119 232.316,268.619 229.000 C 268.918 228.340,269.355 227.043,269.592 226.117 C 269.828 225.191,270.180 224.336,270.373 224.216 C 270.567 224.097,270.852 223.054,271.007 221.900 C 271.162 220.745,271.518 219.244,271.797 218.564 C 272.077 217.884,272.435 215.994,272.592 214.364 C 272.749 212.734,273.130 210.173,273.439 208.674 C 274.156 205.188,274.151 197.701,273.429 194.600 C 273.122 193.280,272.751 190.940,272.605 189.400 C 272.459 187.860,272.098 185.790,271.803 184.800 C 271.508 183.810,271.148 182.299,271.004 181.442 C 270.860 180.584,270.498 179.504,270.200 179.042 C 269.903 178.579,269.535 177.523,269.384 176.696 C 269.233 175.868,268.955 175.096,268.766 174.979 C 268.576 174.862,268.220 174.009,267.974 173.083 C 267.727 172.157,267.294 171.130,267.010 170.800 C 266.727 170.470,266.372 169.797,266.222 169.305 C 265.953 168.421,264.459 165.722,263.100 163.661 C 262.714 163.078,262.174 162.142,261.900 161.582 C 261.625 161.022,261.181 160.302,260.912 159.982 C 259.475 158.267,256.800 154.787,256.800 154.633 C 256.800 154.535,255.810 153.416,254.600 152.147 C 253.390 150.877,252.400 149.695,252.400 149.519 C 252.400 149.344,252.220 149.200,252.000 149.200 C 251.780 149.200,250.529 148.165,249.221 146.900 C 246.451 144.223,244.652 142.800,244.037 142.800 C 243.797 142.800,243.600 142.652,243.600 142.471 C 243.600 142.073,240.742 140.163,239.610 139.803 C 239.165 139.662,238.800 139.381,238.800 139.178 C 238.800 138.976,238.215 138.542,237.500 138.213 C 236.785 137.885,235.840 137.404,235.400 137.145 C 234.402 136.558,233.973 136.328,231.036 134.817 C 229.736 134.148,228.381 133.600,228.025 133.600 C 227.669 133.600,227.023 133.353,226.589 133.051 C 226.155 132.749,225.170 132.372,224.400 132.212 C 223.630 132.052,222.615 131.678,222.144 131.380 C 221.673 131.083,220.323 130.719,219.144 130.571 C 217.965 130.424,216.460 130.071,215.800 129.786 C 213.875 128.957,196.605 127.511,196.000 128.128 " stroke="none" fill="#040404" fill-rule="evenodd"></path><path id="path1" d="M174.516 1.600 C 174.320 2.348,173.970 2.400,169.116 2.400 C 164.262 2.400,163.912 2.452,163.716 3.200 C 163.525 3.928,163.170 4.000,159.753 4.000 C 156.267 4.000,156.000 4.057,156.000 4.800 C 156.000 5.533,155.733 5.600,152.800 5.600 C 150.222 5.600,149.600 5.717,149.600 6.200 C 149.600 6.626,149.165 6.801,148.100 6.804 C 145.558 6.812,143.600 7.268,143.600 7.852 C 143.600 8.251,142.990 8.400,141.363 8.400 C 139.462 8.400,139.094 8.520,138.916 9.200 C 138.739 9.877,138.370 10.000,136.516 10.000 C 134.662 10.000,134.293 10.123,134.116 10.800 C 133.939 11.475,133.570 11.600,131.753 11.600 C 129.867 11.600,129.600 11.699,129.600 12.400 C 129.600 13.093,129.333 13.200,127.603 13.200 C 126.040 13.200,125.498 13.374,125.107 14.000 C 124.769 14.542,124.174 14.800,123.266 14.800 C 122.262 14.800,121.873 15.001,121.716 15.600 C 121.562 16.187,121.170 16.400,120.242 16.400 C 119.435 16.400,118.767 16.690,118.400 17.200 C 117.982 17.780,117.365 18.000,116.154 18.000 C 115.068 18.000,114.408 18.202,114.264 18.578 C 114.142 18.896,113.388 19.279,112.589 19.428 C 111.790 19.578,111.048 19.931,110.940 20.211 C 110.833 20.492,110.127 20.837,109.372 20.979 C 108.556 21.132,108.000 21.472,108.000 21.818 C 108.000 22.167,107.612 22.400,107.033 22.400 C 105.682 22.400,104.800 22.794,104.800 23.398 C 104.800 23.680,104.187 24.026,103.439 24.166 C 102.690 24.307,101.976 24.687,101.851 25.011 C 101.727 25.335,101.259 25.600,100.813 25.600 C 100.267 25.600,100.000 25.863,100.000 26.400 C 100.000 27.052,99.733 27.200,98.563 27.200 C 97.462 27.200,97.076 27.387,96.916 28.000 C 96.759 28.601,96.370 28.800,95.353 28.800 C 94.267 28.800,94.000 28.958,94.000 29.600 C 94.000 30.133,93.733 30.400,93.200 30.400 C 92.760 30.400,92.400 30.654,92.400 30.965 C 92.400 31.312,91.784 31.634,90.800 31.800 C 89.816 31.966,89.200 32.288,89.200 32.635 C 89.200 32.946,88.840 33.200,88.400 33.200 C 87.867 33.200,87.600 33.467,87.600 34.000 C 87.600 34.645,87.333 34.800,86.227 34.800 C 85.205 34.800,84.789 35.005,84.600 35.600 C 84.460 36.040,84.071 36.400,83.736 36.400 C 83.400 36.400,83.031 36.760,82.916 37.200 C 82.766 37.774,82.370 38.000,81.516 38.000 C 80.662 38.000,80.266 38.226,80.116 38.800 C 80.000 39.243,79.570 39.600,79.153 39.600 C 78.667 39.600,78.400 39.883,78.400 40.400 C 78.400 40.933,78.133 41.200,77.600 41.200 C 77.067 41.200,76.800 41.467,76.800 42.000 C 76.800 42.620,76.533 42.800,75.614 42.800 C 74.838 42.800,74.280 43.076,74.000 43.600 C 73.765 44.040,73.303 44.400,72.973 44.400 C 72.644 44.400,72.278 44.652,72.160 44.961 C 72.041 45.269,71.597 45.612,71.172 45.723 C 70.748 45.834,70.400 46.212,70.400 46.563 C 70.400 46.913,70.130 47.200,69.800 47.200 C 69.467 47.200,69.200 47.556,69.200 48.000 C 69.200 48.533,68.933 48.800,68.400 48.800 C 67.867 48.800,67.600 49.067,67.600 49.600 C 67.600 50.133,67.333 50.400,66.800 50.400 C 66.360 50.400,65.640 50.760,65.200 51.200 C 64.760 51.640,64.222 52.000,64.003 52.000 C 63.785 52.000,63.382 52.360,63.107 52.800 C 62.832 53.240,62.393 53.600,62.131 53.600 C 61.868 53.600,61.540 53.960,61.400 54.400 C 61.260 54.840,60.900 55.200,60.600 55.200 C 60.300 55.200,59.940 55.560,59.800 56.000 C 59.660 56.440,59.387 56.800,59.194 56.800 C 58.689 56.800,56.800 58.614,56.800 59.099 C 56.800 59.323,56.440 59.601,56.000 59.716 C 55.560 59.831,55.200 60.191,55.200 60.516 C 55.200 60.841,54.840 61.201,54.400 61.316 C 53.960 61.431,53.600 61.812,53.600 62.163 C 53.600 62.513,53.324 62.800,52.987 62.800 C 52.651 62.800,52.263 63.092,52.126 63.448 C 51.990 63.804,51.282 64.692,50.554 65.420 C 49.825 66.148,49.115 67.200,48.975 67.758 C 48.835 68.315,48.378 68.880,47.960 69.013 C 47.542 69.145,47.200 69.491,47.200 69.780 C 47.200 70.070,46.840 70.401,46.400 70.516 C 45.960 70.631,45.600 71.012,45.600 71.363 C 45.600 71.713,45.330 72.000,45.000 72.000 C 44.667 72.000,44.400 72.356,44.400 72.800 C 44.400 73.333,44.133 73.600,43.600 73.600 C 43.013 73.600,42.800 73.867,42.800 74.600 C 42.800 75.188,42.570 75.600,42.243 75.600 C 41.631 75.600,41.200 76.441,41.200 77.633 C 41.200 78.133,40.922 78.400,40.400 78.400 C 39.867 78.400,39.600 78.667,39.600 79.200 C 39.600 79.733,39.333 80.000,38.800 80.000 C 38.267 80.000,38.000 80.267,38.000 80.800 C 38.000 81.240,37.749 81.600,37.443 81.600 C 36.840 81.600,36.400 82.438,36.400 83.586 C 36.400 83.982,36.040 84.401,35.600 84.516 C 35.160 84.631,34.800 85.012,34.800 85.363 C 34.800 85.713,34.549 86.000,34.243 86.000 C 33.598 86.000,33.200 86.852,33.200 88.233 C 33.200 88.806,32.966 89.200,32.627 89.200 C 32.312 89.200,31.940 89.560,31.800 90.000 C 31.660 90.440,31.288 90.800,30.973 90.800 C 30.587 90.800,30.400 91.248,30.400 92.173 C 30.400 93.169,30.192 93.612,29.643 93.786 C 29.227 93.918,28.794 94.381,28.681 94.813 C 28.567 95.246,28.188 95.600,27.837 95.600 C 27.376 95.600,27.200 95.986,27.200 97.000 C 27.200 98.133,27.048 98.400,26.400 98.400 C 25.733 98.400,25.600 98.667,25.600 100.000 C 25.600 101.333,25.467 101.600,24.800 101.600 C 24.263 101.600,24.000 101.867,24.000 102.413 C 24.000 102.859,23.735 103.327,23.411 103.451 C 23.087 103.576,22.707 104.290,22.566 105.039 C 22.426 105.787,22.069 106.400,21.774 106.400 C 21.478 106.400,21.120 107.018,20.979 107.772 C 20.837 108.527,20.492 109.233,20.211 109.340 C 19.931 109.448,19.580 110.181,19.432 110.968 C 19.270 111.831,18.933 112.400,18.582 112.400 C 18.173 112.400,18.000 112.861,18.000 113.953 C 18.000 115.170,17.827 115.552,17.200 115.716 C 16.596 115.874,16.400 116.262,16.400 117.301 C 16.400 118.168,16.105 118.943,15.600 119.400 C 15.064 119.885,14.800 120.632,14.800 121.662 C 14.800 122.933,14.661 123.200,14.000 123.200 C 13.352 123.200,13.200 123.467,13.200 124.600 C 13.200 125.467,12.895 126.305,12.400 126.800 C 11.837 127.363,11.600 128.133,11.600 129.400 C 11.600 130.933,11.481 131.200,10.800 131.200 C 10.099 131.200,10.000 131.467,10.000 133.353 C 10.000 135.170,9.875 135.539,9.200 135.716 C 8.520 135.894,8.400 136.262,8.400 138.163 C 8.400 139.801,8.252 140.400,7.847 140.400 C 7.215 140.400,6.813 141.601,6.805 143.513 C 6.802 144.306,6.563 144.916,6.200 145.055 C 5.742 145.231,5.600 145.983,5.600 148.243 C 5.600 150.933,5.528 151.200,4.800 151.200 C 4.070 151.200,4.000 151.467,4.000 154.237 C 4.000 156.938,3.911 157.298,3.200 157.484 C 2.473 157.674,2.400 158.030,2.400 161.400 C 2.400 164.770,2.327 165.126,1.600 165.316 C 0.851 165.512,0.800 165.862,0.800 170.763 C 0.800 173.988,0.646 176.000,0.400 176.000 C 0.138 176.000,0.000 184.800,0.000 201.600 C 0.000 218.400,0.138 227.200,0.400 227.200 C 0.646 227.200,0.800 229.191,0.800 232.373 C 0.800 237.195,0.854 237.563,1.600 237.800 C 2.322 238.029,2.400 238.405,2.400 241.664 C 2.400 244.938,2.475 245.294,3.200 245.484 C 3.910 245.670,4.000 246.030,4.000 248.684 C 4.000 251.338,4.090 251.698,4.800 251.884 C 5.509 252.069,5.600 252.430,5.600 255.047 C 5.600 257.405,5.721 258.000,6.200 258.000 C 6.649 258.000,6.800 258.478,6.801 259.900 C 6.802 261.093,7.100 262.288,7.601 263.110 C 8.108 263.940,8.400 265.125,8.400 266.348 C 8.400 267.768,8.611 268.467,9.200 269.000 C 9.842 269.581,10.000 270.232,10.000 272.299 C 10.000 274.538,10.104 274.902,10.800 275.084 C 11.484 275.263,11.600 275.630,11.600 277.614 C 11.600 280.298,11.862 281.200,12.643 281.200 C 13.053 281.200,13.200 281.792,13.200 283.437 C 13.200 285.338,13.320 285.706,14.000 285.884 C 14.675 286.061,14.800 286.430,14.800 288.243 C 14.800 289.960,14.961 290.494,15.600 290.893 C 16.264 291.307,16.400 291.826,16.400 293.934 C 16.400 296.138,16.506 296.503,17.200 296.684 C 17.876 296.861,18.000 297.230,18.000 299.059 C 18.000 300.615,18.169 301.290,18.600 301.455 C 18.930 301.582,19.200 302.094,19.200 302.593 C 19.200 304.355,19.707 306.000,20.250 306.000 C 20.651 306.000,20.800 306.606,20.800 308.237 C 20.800 310.138,20.920 310.506,21.600 310.684 C 22.273 310.860,22.400 311.230,22.400 313.020 C 22.400 314.795,22.532 315.188,23.200 315.400 C 23.871 315.613,24.000 316.005,24.000 317.827 C 24.000 319.733,24.098 320.000,24.800 320.000 C 25.505 320.000,25.600 320.267,25.600 322.237 C 25.600 324.138,25.720 324.506,26.400 324.684 C 27.075 324.861,27.200 325.230,27.200 327.047 C 27.200 328.933,27.299 329.200,28.000 329.200 C 28.705 329.200,28.800 329.467,28.800 331.437 C 28.800 333.338,28.920 333.706,29.600 333.884 C 30.275 334.061,30.400 334.430,30.400 336.247 C 30.400 337.894,30.541 338.400,31.000 338.400 C 31.368 338.400,31.600 338.774,31.600 339.367 C 31.600 340.748,31.998 341.600,32.643 341.600 C 33.053 341.600,33.200 342.192,33.200 343.837 C 33.200 345.738,33.320 346.106,34.000 346.284 C 34.661 346.457,34.800 346.830,34.800 348.424 C 34.800 349.844,34.995 350.493,35.537 350.877 C 35.979 351.191,36.369 352.115,36.510 353.186 C 36.641 354.168,37.029 355.178,37.373 355.430 C 37.744 355.701,38.000 356.484,38.000 357.344 C 38.000 358.533,38.147 358.800,38.800 358.800 C 39.502 358.800,39.600 359.067,39.600 360.973 C 39.600 362.795,39.729 363.187,40.400 363.400 C 40.995 363.589,41.200 364.005,41.200 365.024 C 41.200 365.960,41.453 366.551,42.000 366.893 C 42.618 367.279,42.800 367.826,42.800 369.296 C 42.800 370.679,42.956 371.200,43.371 371.200 C 43.764 371.200,44.028 371.889,44.217 373.400 C 44.402 374.875,44.675 375.600,45.046 375.600 C 45.412 375.600,45.600 376.073,45.600 376.997 C 45.600 377.960,45.848 378.548,46.400 378.893 C 46.970 379.249,47.200 379.826,47.200 380.896 C 47.200 381.867,47.484 382.684,48.000 383.200 C 48.455 383.655,48.800 384.533,48.800 385.237 C 48.800 386.138,49.017 386.532,49.600 386.684 C 50.265 386.858,50.400 387.230,50.400 388.884 C 50.400 390.538,50.535 390.910,51.200 391.084 C 51.827 391.248,52.000 391.630,52.000 392.847 C 52.000 394.133,52.137 394.400,52.800 394.400 C 53.502 394.400,53.600 394.667,53.600 396.573 C 53.600 398.395,53.729 398.787,54.400 399.000 C 54.997 399.190,55.200 399.605,55.200 400.640 C 55.200 401.466,55.429 402.113,55.767 402.243 C 56.091 402.367,56.450 403.313,56.608 404.458 C 56.763 405.588,57.126 406.550,57.441 406.671 C 57.749 406.789,58.000 407.302,58.000 407.810 C 58.000 409.150,58.405 410.000,59.043 410.000 C 59.412 410.000,59.600 410.468,59.600 411.386 C 59.600 412.362,59.836 412.898,60.400 413.200 C 61.020 413.532,61.200 414.038,61.200 415.452 C 61.200 416.938,61.348 417.313,62.000 417.484 C 62.627 417.648,62.800 418.030,62.800 419.247 C 62.800 420.533,62.937 420.800,63.600 420.800 C 64.295 420.800,64.400 421.067,64.400 422.837 C 64.400 424.538,64.532 424.909,65.200 425.084 C 65.824 425.247,66.000 425.630,66.000 426.820 C 66.000 427.995,66.184 428.405,66.800 428.600 C 67.395 428.789,67.600 429.205,67.600 430.227 C 67.600 431.129,67.790 431.600,68.153 431.600 C 68.779 431.600,69.186 432.797,69.195 434.657 C 69.198 435.402,69.445 436.008,69.800 436.145 C 70.150 436.279,70.400 436.878,70.400 437.584 C 70.400 438.360,70.687 438.972,71.200 439.293 C 71.713 439.613,72.000 440.226,72.000 441.000 C 72.000 441.774,72.287 442.387,72.800 442.707 C 73.382 443.071,73.600 443.640,73.600 444.800 C 73.600 445.960,73.818 446.529,74.400 446.893 C 74.942 447.231,75.200 447.826,75.200 448.734 C 75.200 449.738,75.401 450.127,76.000 450.284 C 76.606 450.443,76.800 450.830,76.800 451.884 C 76.800 452.938,76.994 453.325,77.600 453.484 C 78.246 453.653,78.400 454.030,78.400 455.443 C 78.400 456.760,78.598 457.317,79.200 457.693 C 79.731 458.025,80.000 458.626,80.000 459.482 C 80.000 460.362,80.254 460.908,80.800 461.200 C 81.327 461.482,81.600 462.038,81.600 462.827 C 81.600 463.523,81.851 464.122,82.200 464.255 C 82.558 464.393,82.800 464.995,82.800 465.747 C 82.800 466.542,83.074 467.179,83.543 467.472 C 83.997 467.755,84.375 468.597,84.514 469.636 C 84.639 470.571,85.025 471.494,85.371 471.688 C 85.750 471.900,86.000 472.578,86.000 473.393 C 86.000 474.395,86.208 474.812,86.800 475.000 C 87.391 475.188,87.600 475.605,87.600 476.600 C 87.600 477.595,87.809 478.012,88.400 478.200 C 88.995 478.389,89.200 478.805,89.200 479.827 C 89.200 480.933,89.355 481.200,90.000 481.200 C 90.664 481.200,90.800 481.467,90.800 482.767 C 90.800 484.722,91.123 485.600,91.843 485.600 C 92.226 485.600,92.400 486.099,92.400 487.200 C 92.400 488.533,92.533 488.800,93.200 488.800 C 93.867 488.800,94.000 489.067,94.000 490.400 C 94.000 491.556,94.167 492.000,94.600 492.000 C 95.022 492.000,95.200 492.426,95.200 493.437 C 95.200 494.538,95.387 494.924,96.000 495.084 C 96.620 495.246,96.800 495.630,96.800 496.785 C 96.800 497.768,97.073 498.523,97.600 499.000 C 98.040 499.398,98.400 500.131,98.400 500.629 C 98.400 501.951,98.808 502.800,99.443 502.800 C 99.826 502.800,100.000 503.299,100.000 504.400 C 100.000 505.733,100.133 506.000,100.800 506.000 C 101.467 506.000,101.600 506.267,101.600 507.600 C 101.600 508.933,101.733 509.200,102.400 509.200 C 103.067 509.200,103.200 509.467,103.200 510.800 C 103.200 512.133,103.333 512.400,104.000 512.400 C 104.652 512.400,104.800 512.667,104.800 513.837 C 104.800 514.938,104.987 515.324,105.600 515.484 C 106.187 515.638,106.400 516.030,106.400 516.958 C 106.400 517.653,106.644 518.577,106.943 519.011 C 107.242 519.445,107.612 520.484,107.765 521.321 C 107.919 522.158,108.304 522.942,108.622 523.064 C 108.940 523.186,109.200 523.800,109.200 524.429 C 109.200 525.162,109.486 525.725,110.000 526.000 C 110.564 526.302,110.800 526.838,110.800 527.814 C 110.800 528.933,110.954 529.200,111.600 529.200 C 112.267 529.200,112.400 529.467,112.400 530.800 C 112.400 532.133,112.533 532.400,113.200 532.400 C 113.867 532.400,114.000 532.667,114.000 534.000 C 114.000 535.333,114.133 535.600,114.800 535.600 C 115.458 535.600,115.600 535.867,115.600 537.104 C 115.600 538.174,115.830 538.751,116.400 539.107 C 116.988 539.474,117.200 540.040,117.200 541.241 C 117.200 542.538,117.365 542.918,118.000 543.084 C 118.603 543.242,118.800 543.630,118.800 544.659 C 118.800 545.462,119.031 546.114,119.361 546.240 C 119.669 546.359,120.039 547.082,120.183 547.849 C 120.327 548.615,120.704 549.342,121.022 549.464 C 121.340 549.586,121.600 550.200,121.600 550.829 C 121.600 551.562,121.886 552.125,122.400 552.400 C 122.964 552.702,123.200 553.238,123.200 554.214 C 123.200 555.333,123.354 555.600,124.000 555.600 C 124.667 555.600,124.800 555.867,124.800 557.200 C 124.800 558.533,124.933 558.800,125.600 558.800 C 126.267 558.800,126.400 559.067,126.400 560.400 C 126.400 561.733,126.533 562.000,127.200 562.000 C 127.852 562.000,128.000 562.267,128.000 563.437 C 128.000 564.538,128.187 564.924,128.800 565.084 C 129.401 565.241,129.600 565.630,129.600 566.647 C 129.600 567.733,129.758 568.000,130.400 568.000 C 131.059 568.000,131.200 568.267,131.200 569.511 C 131.200 570.342,131.447 571.377,131.749 571.811 C 132.051 572.245,132.428 573.197,132.587 573.927 C 132.745 574.657,133.107 575.343,133.391 575.452 C 133.674 575.560,134.019 576.358,134.158 577.225 C 134.320 578.240,134.621 578.800,135.005 578.800 C 135.368 578.800,135.600 579.178,135.600 579.767 C 135.600 581.148,135.998 582.000,136.643 582.000 C 137.016 582.000,137.200 582.475,137.200 583.437 C 137.200 584.538,137.387 584.924,138.000 585.084 C 138.597 585.240,138.800 585.630,138.800 586.620 C 138.800 587.595,139.012 588.013,139.600 588.200 C 140.195 588.389,140.400 588.805,140.400 589.827 C 140.400 590.933,140.555 591.200,141.200 591.200 C 141.867 591.200,142.000 591.467,142.000 592.800 C 142.000 594.133,142.133 594.400,142.800 594.400 C 143.467 594.400,143.600 594.667,143.600 596.000 C 143.600 597.156,143.767 597.600,144.200 597.600 C 144.600 597.600,144.800 598.000,144.800 598.797 C 144.800 599.560,145.090 600.174,145.600 600.493 C 146.134 600.826,146.400 601.426,146.400 602.296 C 146.400 603.333,146.564 603.600,147.200 603.600 C 147.867 603.600,148.000 603.867,148.000 605.200 C 148.000 606.533,148.133 606.800,148.800 606.800 C 149.467 606.800,149.600 607.067,149.600 608.400 C 149.600 609.733,149.733 610.000,150.400 610.000 C 151.052 610.000,151.200 610.267,151.200 611.437 C 151.200 612.538,151.387 612.924,152.000 613.084 C 152.601 613.241,152.800 613.630,152.800 614.647 C 152.800 615.733,152.958 616.000,153.600 616.000 C 154.267 616.000,154.400 616.267,154.400 617.600 C 154.400 618.933,154.533 619.200,155.200 619.200 C 155.867 619.200,156.000 619.467,156.000 620.800 C 156.000 621.956,156.167 622.400,156.600 622.400 C 156.968 622.400,157.200 622.774,157.200 623.367 C 157.200 624.748,157.598 625.600,158.243 625.600 C 158.613 625.600,158.800 626.070,158.800 627.000 C 158.800 628.133,158.952 628.400,159.600 628.400 C 160.267 628.400,160.400 628.667,160.400 630.000 C 160.400 631.333,160.533 631.600,161.200 631.600 C 161.867 631.600,162.000 631.867,162.000 633.200 C 162.000 634.533,162.133 634.800,162.800 634.800 C 163.452 634.800,163.600 635.067,163.600 636.237 C 163.600 637.338,163.787 637.724,164.400 637.884 C 165.001 638.041,165.200 638.430,165.200 639.447 C 165.200 640.533,165.358 640.800,166.000 640.800 C 166.667 640.800,166.800 641.067,166.800 642.400 C 166.800 643.733,166.933 644.000,167.600 644.000 C 168.267 644.000,168.400 644.267,168.400 645.600 C 168.400 646.756,168.567 647.200,169.000 647.200 C 169.368 647.200,169.600 647.574,169.600 648.167 C 169.600 649.548,169.998 650.400,170.643 650.400 C 171.013 650.400,171.200 650.870,171.200 651.800 C 171.200 652.933,171.352 653.200,172.000 653.200 C 172.667 653.200,172.800 653.467,172.800 654.800 C 172.800 656.133,172.933 656.400,173.600 656.400 C 174.267 656.400,174.400 656.667,174.400 658.000 C 174.400 659.333,174.533 659.600,175.200 659.600 C 175.852 659.600,176.000 659.867,176.000 661.037 C 176.000 662.138,176.187 662.524,176.800 662.684 C 177.401 662.841,177.600 663.230,177.600 664.247 C 177.600 665.333,177.758 665.600,178.400 665.600 C 179.067 665.600,179.200 665.867,179.200 667.200 C 179.200 668.533,179.333 668.800,180.000 668.800 C 180.667 668.800,180.800 669.067,180.800 670.400 C 180.800 671.499,180.974 672.000,181.355 672.000 C 181.675 672.000,182.024 672.603,182.178 673.421 C 182.324 674.203,182.704 674.942,183.022 675.064 C 183.347 675.189,183.600 675.808,183.600 676.480 C 183.600 677.338,183.825 677.734,184.400 677.884 C 185.006 678.043,185.200 678.430,185.200 679.484 C 185.200 680.538,185.394 680.925,186.000 681.084 C 186.606 681.243,186.800 681.630,186.800 682.684 C 186.800 683.738,186.994 684.125,187.600 684.284 C 188.197 684.440,188.400 684.830,188.400 685.820 C 188.400 686.795,188.612 687.213,189.200 687.400 C 189.795 687.589,190.000 688.005,190.000 689.027 C 190.000 690.133,190.155 690.400,190.800 690.400 C 191.452 690.400,191.600 690.667,191.600 691.837 C 191.600 692.938,191.787 693.324,192.400 693.484 C 192.995 693.640,193.200 694.030,193.200 695.004 C 193.200 695.761,193.438 696.406,193.762 696.530 C 194.072 696.649,194.449 697.310,194.600 698.000 C 194.751 698.690,195.128 699.351,195.438 699.470 C 195.747 699.588,196.000 699.992,196.000 700.367 C 196.000 700.742,196.360 701.436,196.800 701.908 C 197.240 702.380,197.600 703.134,197.600 703.583 C 197.600 704.133,197.861 704.400,198.400 704.400 C 199.068 704.400,199.200 704.667,199.200 706.020 L 199.200 707.640 201.500 707.520 L 203.800 707.400 203.924 705.900 C 204.021 704.725,204.216 704.400,204.824 704.400 C 205.440 704.400,205.600 704.119,205.600 703.043 C 205.600 702.205,205.830 701.597,206.200 701.455 C 206.577 701.311,206.800 700.699,206.800 699.813 C 206.800 698.667,206.951 698.400,207.600 698.400 C 208.267 698.400,208.400 698.133,208.400 696.800 C 208.400 695.467,208.533 695.200,209.200 695.200 C 209.867 695.200,210.000 694.933,210.000 693.600 C 210.000 692.267,210.133 692.000,210.800 692.000 C 211.442 692.000,211.600 691.733,211.600 690.647 C 211.600 689.630,211.799 689.241,212.400 689.084 C 213.006 688.925,213.200 688.538,213.200 687.484 C 213.200 686.430,213.394 686.043,214.000 685.884 C 214.606 685.725,214.800 685.338,214.800 684.284 C 214.800 683.230,214.994 682.843,215.600 682.684 C 216.206 682.525,216.400 682.138,216.400 681.084 C 216.400 680.030,216.594 679.643,217.200 679.484 C 217.775 679.334,218.000 678.938,218.000 678.080 C 218.000 677.387,218.252 676.789,218.600 676.655 C 218.977 676.511,219.200 675.899,219.200 675.013 C 219.200 673.867,219.351 673.600,220.000 673.600 C 220.667 673.600,220.800 673.333,220.800 672.000 C 220.800 670.667,220.933 670.400,221.600 670.400 C 222.267 670.400,222.400 670.133,222.400 668.800 C 222.400 667.467,222.533 667.200,223.200 667.200 C 223.852 667.200,224.000 666.933,224.000 665.763 C 224.000 664.662,224.187 664.276,224.800 664.116 C 225.394 663.961,225.600 663.570,225.600 662.600 C 225.600 661.630,225.806 661.239,226.400 661.084 C 227.013 660.924,227.200 660.538,227.200 659.437 C 227.200 658.475,227.384 658.000,227.757 658.000 C 228.402 658.000,228.800 657.148,228.800 655.767 C 228.800 655.201,229.034 654.800,229.365 654.800 C 229.712 654.800,230.034 654.184,230.200 653.200 C 230.366 652.216,230.688 651.600,231.035 651.600 C 231.412 651.600,231.600 651.143,231.600 650.227 C 231.600 649.205,231.805 648.789,232.400 648.600 C 232.980 648.416,233.200 647.995,233.200 647.069 C 233.200 646.226,233.471 645.623,234.000 645.293 C 234.452 645.010,234.800 644.360,234.800 643.797 C 234.800 643.248,235.160 642.440,235.600 642.000 C 236.089 641.511,236.400 640.667,236.400 639.827 C 236.400 638.805,236.605 638.389,237.200 638.200 C 237.821 638.003,238.000 637.595,238.000 636.373 C 238.000 635.067,238.136 634.800,238.800 634.800 C 239.467 634.800,239.600 634.533,239.600 633.200 C 239.600 631.867,239.733 631.600,240.400 631.600 C 241.063 631.600,241.200 631.333,241.200 630.047 C 241.200 628.830,241.373 628.448,242.000 628.284 C 242.575 628.134,242.800 627.738,242.800 626.880 C 242.800 626.187,243.052 625.589,243.400 625.455 C 243.777 625.311,244.000 624.699,244.000 623.813 C 244.000 622.667,244.151 622.400,244.800 622.400 C 245.467 622.400,245.600 622.133,245.600 620.800 C 245.600 619.467,245.733 619.200,246.400 619.200 C 247.067 619.200,247.200 618.933,247.200 617.600 C 247.200 616.267,247.333 616.000,248.000 616.000 C 248.663 616.000,248.800 615.733,248.800 614.447 C 248.800 613.230,248.973 612.848,249.600 612.684 C 250.185 612.531,250.400 612.138,250.400 611.225 C 250.400 610.481,250.644 609.881,251.002 609.744 C 251.333 609.617,251.715 608.821,251.850 607.975 C 251.986 607.129,252.435 606.131,252.848 605.756 C 253.288 605.358,253.600 604.540,253.600 603.785 C 253.600 602.830,253.808 602.439,254.400 602.284 C 255.013 602.124,255.200 601.738,255.200 600.637 C 255.200 599.626,255.378 599.200,255.800 599.200 C 256.233 599.200,256.400 598.756,256.400 597.600 C 256.400 596.267,256.533 596.000,257.200 596.000 C 257.867 596.000,258.000 595.733,258.000 594.400 C 258.000 593.067,258.133 592.800,258.800 592.800 C 259.452 592.800,259.600 592.533,259.600 591.363 C 259.600 590.262,259.787 589.876,260.400 589.716 C 260.999 589.559,261.200 589.170,261.200 588.167 C 261.200 587.238,261.445 586.697,262.000 586.400 C 262.527 586.118,262.800 585.562,262.800 584.773 C 262.800 584.087,263.052 583.478,263.389 583.349 C 263.713 583.224,264.100 582.474,264.249 581.681 C 264.398 580.887,264.852 579.881,265.260 579.444 C 265.667 579.007,266.000 578.074,266.000 577.371 C 266.000 576.430,266.211 576.038,266.800 575.884 C 267.413 575.724,267.600 575.338,267.600 574.237 C 267.600 573.226,267.778 572.800,268.200 572.800 C 268.633 572.800,268.800 572.356,268.800 571.200 C 268.800 569.867,268.933 569.600,269.600 569.600 C 270.267 569.600,270.400 569.333,270.400 568.000 C 270.400 566.667,270.533 566.400,271.200 566.400 C 271.863 566.400,272.000 566.133,272.000 564.847 C 272.000 563.630,272.173 563.248,272.800 563.084 C 273.435 562.918,273.600 562.538,273.600 561.241 C 273.600 560.040,273.812 559.474,274.400 559.107 C 274.970 558.751,275.200 558.174,275.200 557.104 C 275.200 555.867,275.342 555.600,276.000 555.600 C 276.645 555.600,276.800 555.333,276.800 554.227 C 276.800 553.205,277.005 552.789,277.600 552.600 C 278.195 552.411,278.400 551.995,278.400 550.973 C 278.400 550.024,278.584 549.600,278.995 549.600 C 279.379 549.600,279.680 549.040,279.842 548.025 C 279.981 547.158,280.343 546.354,280.647 546.237 C 280.970 546.113,281.200 545.450,281.200 544.640 C 281.200 543.605,281.403 543.190,282.000 543.000 C 282.621 542.803,282.800 542.395,282.800 541.176 C 282.800 540.040,283.021 539.469,283.600 539.107 C 284.170 538.751,284.400 538.174,284.400 537.104 C 284.400 535.867,284.542 535.600,285.200 535.600 C 285.867 535.600,286.000 535.333,286.000 534.000 C 286.000 532.667,286.133 532.400,286.800 532.400 C 287.463 532.400,287.600 532.133,287.600 530.847 C 287.600 529.630,287.773 529.248,288.400 529.084 C 288.983 528.932,289.200 528.538,289.200 527.637 C 289.200 526.933,289.545 526.055,290.000 525.600 C 290.525 525.075,290.800 524.267,290.800 523.247 C 290.800 522.030,290.973 521.648,291.600 521.484 C 292.213 521.324,292.400 520.938,292.400 519.837 C 292.400 518.826,292.578 518.400,293.000 518.400 C 293.422 518.400,293.600 517.974,293.600 516.963 C 293.600 515.862,293.787 515.476,294.400 515.316 C 295.021 515.153,295.200 514.770,295.200 513.600 C 295.200 512.430,295.379 512.047,296.000 511.884 C 296.635 511.718,296.800 511.338,296.800 510.041 C 296.800 508.840,297.012 508.274,297.600 507.907 C 298.170 507.551,298.400 506.974,298.400 505.904 C 298.400 504.667,298.542 504.400,299.200 504.400 C 299.845 504.400,300.000 504.133,300.000 503.027 C 300.000 502.005,300.205 501.589,300.800 501.400 C 301.360 501.222,301.600 500.795,301.600 499.973 C 301.600 499.328,301.960 498.440,302.400 498.000 C 302.963 497.437,303.200 496.667,303.200 495.400 C 303.200 493.867,303.319 493.600,304.000 493.600 C 304.636 493.600,304.800 493.333,304.800 492.296 C 304.800 491.426,305.066 490.826,305.600 490.493 C 306.113 490.172,306.400 489.560,306.400 488.784 C 306.400 488.078,306.650 487.479,307.000 487.345 C 307.370 487.203,307.600 486.595,307.600 485.757 C 307.600 484.933,307.914 484.086,308.400 483.600 C 308.933 483.067,309.200 482.267,309.200 481.200 C 309.200 479.867,309.333 479.600,310.000 479.600 C 310.645 479.600,310.800 479.333,310.800 478.227 C 310.800 477.205,311.005 476.789,311.600 476.600 C 312.221 476.403,312.400 475.995,312.400 474.773 C 312.400 473.700,312.576 473.200,312.953 473.200 C 313.584 473.200,313.987 472.000,313.995 470.100 C 313.999 469.068,314.165 468.800,314.800 468.800 C 315.437 468.800,315.600 468.533,315.600 467.489 C 315.600 466.673,315.902 465.919,316.400 465.493 C 316.871 465.089,317.200 464.313,317.200 463.604 C 317.200 462.846,317.405 462.400,317.753 462.400 C 318.384 462.400,318.787 461.200,318.795 459.300 C 318.798 458.414,318.991 458.000,319.400 458.000 C 319.833 458.000,320.000 457.556,320.000 456.400 C 320.000 455.067,320.133 454.800,320.800 454.800 C 321.463 454.800,321.600 454.533,321.600 453.247 C 321.600 452.030,321.773 451.648,322.400 451.484 C 323.068 451.309,323.200 450.938,323.200 449.237 C 323.200 447.467,323.305 447.200,324.000 447.200 C 324.667 447.200,324.800 446.933,324.800 445.600 C 324.800 444.267,324.933 444.000,325.600 444.000 C 326.267 444.000,326.400 443.733,326.400 442.400 C 326.400 441.304,326.574 440.800,326.953 440.800 C 327.578 440.800,327.986 439.603,327.995 437.747 C 327.999 436.832,328.216 436.437,328.800 436.284 C 329.413 436.124,329.600 435.738,329.600 434.637 C 329.600 433.680,329.785 433.200,330.153 433.200 C 330.761 433.200,331.186 432.012,331.195 430.287 C 331.198 429.672,331.468 429.072,331.800 428.945 C 332.187 428.796,332.400 428.178,332.400 427.204 C 332.400 426.030,332.578 425.647,333.200 425.484 C 333.799 425.327,334.000 424.938,334.000 423.934 C 334.000 423.026,334.258 422.431,334.800 422.093 C 335.426 421.702,335.600 421.160,335.600 419.597 C 335.600 417.867,335.707 417.600,336.400 417.600 C 337.063 417.600,337.200 417.333,337.200 416.047 C 337.200 414.830,337.373 414.448,338.000 414.284 C 338.668 414.109,338.800 413.738,338.800 412.037 C 338.800 410.267,338.905 410.000,339.600 410.000 C 340.267 410.000,340.400 409.733,340.400 408.400 C 340.400 407.304,340.574 406.800,340.953 406.800 C 341.578 406.800,341.986 405.603,341.995 403.747 C 341.999 402.832,342.216 402.437,342.800 402.284 C 343.407 402.125,343.600 401.738,343.600 400.680 C 343.600 399.810,343.825 399.199,344.200 399.055 C 344.633 398.889,344.800 398.210,344.800 396.613 C 344.800 394.667,344.896 394.400,345.600 394.400 C 346.252 394.400,346.400 394.133,346.400 392.963 C 346.400 391.862,346.587 391.476,347.200 391.316 C 347.875 391.139,348.000 390.770,348.000 388.953 C 348.000 387.067,348.099 386.800,348.800 386.800 C 349.463 386.800,349.600 386.533,349.600 385.247 C 349.600 384.030,349.773 383.648,350.400 383.484 C 351.065 383.310,351.200 382.938,351.200 381.284 C 351.200 379.630,351.335 379.258,352.000 379.084 C 352.636 378.918,352.800 378.538,352.800 377.237 C 352.800 376.110,352.972 375.600,353.353 375.600 C 353.984 375.600,354.387 374.400,354.395 372.500 C 354.398 371.658,354.596 371.200,354.957 371.200 C 355.624 371.200,356.000 370.340,356.000 368.816 C 356.000 368.201,356.270 367.474,356.600 367.200 C 356.941 366.917,357.200 366.045,357.200 365.178 C 357.200 364.005,357.384 363.595,358.000 363.400 C 358.671 363.187,358.800 362.795,358.800 360.973 C 358.800 359.067,358.898 358.800,359.600 358.800 C 360.267 358.800,360.400 358.533,360.400 357.200 C 360.400 356.133,360.667 355.333,361.200 354.800 C 361.689 354.311,362.000 353.467,362.000 352.627 C 362.000 351.605,362.205 351.189,362.800 351.000 C 363.468 350.788,363.600 350.395,363.600 348.620 C 363.600 346.830,363.727 346.460,364.400 346.284 C 365.080 346.106,365.200 345.738,365.200 343.837 C 365.200 341.867,365.295 341.600,366.000 341.600 C 366.653 341.600,366.800 341.333,366.800 340.144 C 366.800 339.271,367.056 338.501,367.441 338.220 C 367.800 337.957,368.174 336.927,368.293 335.876 C 368.430 334.657,368.696 334.000,369.052 334.000 C 369.455 334.000,369.600 333.365,369.600 331.600 C 369.600 329.467,369.689 329.200,370.400 329.200 C 371.103 329.200,371.200 328.933,371.200 327.000 C 371.200 325.067,371.297 324.800,372.000 324.800 C 372.711 324.800,372.800 324.533,372.800 322.400 C 372.800 320.267,372.889 320.000,373.600 320.000 C 374.301 320.000,374.400 319.733,374.400 317.847 C 374.400 316.030,374.525 315.661,375.200 315.484 C 375.829 315.320,376.000 314.938,376.000 313.699 C 376.000 312.632,376.258 311.891,376.800 311.400 C 377.390 310.866,377.600 310.168,377.600 308.741 C 377.600 307.240,377.779 306.695,378.400 306.307 C 379.032 305.913,379.200 305.374,379.200 303.750 C 379.200 302.030,379.331 301.659,380.000 301.484 C 380.680 301.306,380.800 300.938,380.800 299.037 C 380.800 297.315,380.938 296.800,381.400 296.800 C 381.867 296.800,382.000 296.267,382.000 294.400 C 382.000 292.267,382.089 292.000,382.800 292.000 C 383.501 292.000,383.600 291.733,383.600 289.847 C 383.600 288.030,383.725 287.661,384.400 287.484 C 385.079 287.307,385.200 286.938,385.200 285.057 C 385.200 283.388,385.368 282.746,385.878 282.460 C 386.377 282.181,386.601 281.388,386.723 279.475 C 386.859 277.338,387.025 276.835,387.644 276.672 C 388.269 276.509,388.400 276.096,388.400 274.284 C 388.400 272.430,388.523 272.061,389.200 271.884 C 389.880 271.706,390.000 271.338,390.000 269.437 C 390.000 267.467,390.095 267.200,390.800 267.200 C 391.503 267.200,391.600 266.933,391.600 265.000 C 391.600 263.386,391.748 262.800,392.157 262.800 C 392.896 262.800,393.200 261.914,393.200 259.767 C 393.200 258.463,393.357 258.000,393.800 258.000 C 394.279 258.000,394.400 257.405,394.400 255.047 C 394.400 252.430,394.491 252.069,395.200 251.884 C 395.910 251.698,396.000 251.338,396.000 248.684 C 396.000 246.030,396.090 245.670,396.800 245.484 C 397.525 245.294,397.600 244.938,397.600 241.664 C 397.600 238.405,397.678 238.029,398.400 237.800 C 399.146 237.563,399.200 237.195,399.200 232.373 C 399.200 229.191,399.354 227.200,399.600 227.200 C 399.863 227.200,400.000 218.400,400.000 201.600 C 400.000 184.800,399.863 176.000,399.600 176.000 C 399.354 176.000,399.200 173.988,399.200 170.763 C 399.200 165.862,399.149 165.512,398.400 165.316 C 397.673 165.126,397.600 164.770,397.600 161.400 C 397.600 158.030,397.527 157.674,396.800 157.484 C 396.089 157.298,396.000 156.938,396.000 154.237 C 396.000 151.467,395.930 151.200,395.200 151.200 C 394.472 151.200,394.400 150.933,394.400 148.243 C 394.400 145.983,394.258 145.231,393.800 145.055 C 393.375 144.892,393.200 144.228,393.200 142.775 C 393.200 141.062,393.069 140.691,392.400 140.516 C 391.723 140.339,391.600 139.970,391.600 138.116 C 391.600 136.262,391.477 135.893,390.800 135.716 C 390.125 135.539,390.000 135.170,390.000 133.353 C 390.000 131.467,389.901 131.200,389.200 131.200 C 388.519 131.200,388.400 130.933,388.400 129.400 C 388.400 128.133,388.163 127.363,387.600 126.800 C 387.105 126.305,386.800 125.467,386.800 124.600 C 386.800 123.467,386.648 123.200,386.000 123.200 C 385.339 123.200,385.200 122.933,385.200 121.662 C 385.200 120.632,384.936 119.885,384.400 119.400 C 383.895 118.943,383.600 118.168,383.600 117.301 C 383.600 116.262,383.404 115.874,382.800 115.716 C 382.173 115.552,382.000 115.170,382.000 113.953 C 382.000 112.895,381.823 112.400,381.445 112.400 C 381.125 112.400,380.776 111.797,380.622 110.979 C 380.476 110.197,380.113 109.465,379.817 109.351 C 379.521 109.238,379.163 108.527,379.021 107.772 C 378.880 107.018,378.522 106.400,378.226 106.400 C 377.931 106.400,377.574 105.787,377.434 105.039 C 377.293 104.290,376.913 103.576,376.589 103.451 C 376.265 103.327,376.000 102.859,376.000 102.413 C 376.000 101.867,375.737 101.600,375.200 101.600 C 374.533 101.600,374.400 101.333,374.400 100.000 C 374.400 98.667,374.267 98.400,373.600 98.400 C 372.952 98.400,372.800 98.133,372.800 97.000 C 372.800 95.986,372.624 95.600,372.163 95.600 C 371.812 95.600,371.433 95.246,371.319 94.813 C 371.206 94.381,370.773 93.918,370.357 93.786 C 369.808 93.612,369.600 93.169,369.600 92.173 C 369.600 91.271,369.410 90.800,369.047 90.800 C 368.742 90.800,368.399 90.440,368.284 90.000 C 368.169 89.560,367.788 89.200,367.437 89.200 C 367.030 89.200,366.800 88.851,366.800 88.233 C 366.800 86.883,366.406 86.000,365.804 86.000 C 365.523 86.000,365.199 85.640,365.084 85.200 C 364.969 84.760,364.588 84.400,364.237 84.400 C 363.876 84.400,363.600 84.068,363.600 83.633 C 363.600 82.441,363.169 81.600,362.557 81.600 C 362.251 81.600,362.000 81.240,362.000 80.800 C 362.000 80.267,361.733 80.000,361.200 80.000 C 360.667 80.000,360.400 79.733,360.400 79.200 C 360.400 78.667,360.133 78.400,359.600 78.400 C 359.078 78.400,358.800 78.133,358.800 77.633 C 358.800 76.441,358.369 75.600,357.757 75.600 C 357.430 75.600,357.200 75.188,357.200 74.600 C 357.200 74.015,356.970 73.600,356.647 73.600 C 356.342 73.600,355.999 73.240,355.884 72.800 C 355.769 72.360,355.409 72.000,355.084 72.000 C 354.759 72.000,354.399 71.640,354.284 71.200 C 354.169 70.760,353.788 70.400,353.437 70.400 C 353.087 70.400,352.800 70.142,352.800 69.827 C 352.800 69.512,352.458 69.145,352.040 69.013 C 351.622 68.880,351.165 68.315,351.025 67.758 C 350.885 67.200,350.175 66.148,349.446 65.420 C 348.718 64.692,348.010 63.804,347.874 63.448 C 347.737 63.092,347.370 62.800,347.059 62.800 C 346.748 62.800,346.399 62.440,346.284 62.000 C 346.169 61.560,345.788 61.200,345.437 61.200 C 345.087 61.200,344.800 61.004,344.800 60.764 C 344.800 60.260,341.336 56.800,340.831 56.800 C 340.645 56.800,340.399 56.440,340.284 56.000 C 340.169 55.560,339.800 55.200,339.464 55.200 C 339.129 55.200,338.740 54.840,338.600 54.400 C 338.460 53.960,338.132 53.600,337.869 53.600 C 337.607 53.600,337.168 53.240,336.893 52.800 C 336.618 52.360,336.215 52.000,335.997 52.000 C 335.778 52.000,335.240 51.640,334.800 51.200 C 334.360 50.760,333.640 50.400,333.200 50.400 C 332.667 50.400,332.400 50.133,332.400 49.600 C 332.400 49.160,332.151 48.800,331.847 48.800 C 331.542 48.800,331.199 48.440,331.084 48.000 C 330.969 47.560,330.588 47.200,330.237 47.200 C 329.887 47.200,329.600 46.924,329.600 46.587 C 329.600 46.251,329.285 45.859,328.900 45.718 C 328.515 45.576,328.056 45.222,327.880 44.930 C 327.704 44.639,327.306 44.400,326.994 44.400 C 326.683 44.400,326.235 44.040,326.000 43.600 C 325.720 43.076,325.162 42.800,324.386 42.800 C 323.467 42.800,323.200 42.620,323.200 42.000 C 323.200 41.467,322.933 41.200,322.400 41.200 C 321.867 41.200,321.600 40.933,321.600 40.400 C 321.600 39.883,321.333 39.600,320.847 39.600 C 320.430 39.600,320.000 39.243,319.884 38.800 C 319.732 38.217,319.338 38.000,318.437 38.000 C 317.572 38.000,317.200 37.808,317.200 37.363 C 317.200 37.012,316.857 36.635,316.437 36.526 C 316.017 36.416,315.584 35.983,315.474 35.563 C 315.325 34.991,314.915 34.800,313.837 34.800 C 312.667 34.800,312.400 34.652,312.400 34.000 C 312.400 33.467,312.133 33.200,311.600 33.200 C 311.160 33.200,310.800 32.946,310.800 32.635 C 310.800 32.288,310.184 31.966,309.200 31.800 C 308.216 31.634,307.600 31.312,307.600 30.965 C 307.600 30.654,307.240 30.400,306.800 30.400 C 306.267 30.400,306.000 30.133,306.000 29.600 C 306.000 28.958,305.733 28.800,304.647 28.800 C 303.630 28.800,303.241 28.601,303.084 28.000 C 302.924 27.387,302.538 27.200,301.437 27.200 C 300.267 27.200,300.000 27.052,300.000 26.400 C 300.000 25.863,299.733 25.600,299.187 25.600 C 298.741 25.600,298.273 25.335,298.149 25.011 C 298.024 24.687,297.310 24.307,296.561 24.166 C 295.813 24.026,295.200 23.680,295.200 23.398 C 295.200 22.794,294.318 22.400,292.967 22.400 C 292.388 22.400,292.000 22.167,292.000 21.818 C 292.000 21.472,291.444 21.132,290.628 20.979 C 289.873 20.837,289.167 20.492,289.060 20.211 C 288.952 19.931,288.210 19.578,287.411 19.428 C 286.612 19.279,285.858 18.896,285.736 18.578 C 285.592 18.202,284.932 18.000,283.846 18.000 C 282.635 18.000,282.018 17.780,281.600 17.200 C 281.233 16.690,280.565 16.400,279.758 16.400 C 278.830 16.400,278.438 16.187,278.284 15.600 C 278.127 15.001,277.738 14.800,276.734 14.800 C 275.826 14.800,275.231 14.542,274.893 14.000 C 274.502 13.374,273.960 13.200,272.397 13.200 C 270.667 13.200,270.400 13.093,270.400 12.400 C 270.400 11.699,270.133 11.600,268.247 11.600 C 266.430 11.600,266.061 11.475,265.884 10.800 C 265.707 10.123,265.338 10.000,263.484 10.000 C 261.630 10.000,261.261 9.877,261.084 9.200 C 260.906 8.520,260.538 8.400,258.637 8.400 C 257.010 8.400,256.400 8.251,256.400 7.852 C 256.400 7.268,254.442 6.812,251.900 6.804 C 250.835 6.801,250.400 6.626,250.400 6.200 C 250.400 5.717,249.778 5.600,247.200 5.600 C 244.267 5.600,244.000 5.533,244.000 4.800 C 244.000 4.057,243.733 4.000,240.247 4.000 C 236.830 4.000,236.475 3.928,236.284 3.200 C 236.089 2.452,235.738 2.400,230.934 2.400 C 226.226 2.400,225.750 2.333,225.293 1.600 C 224.802 0.814,224.360 0.800,199.759 0.800 C 175.062 0.800,174.722 0.811,174.516 1.600 M211.102 127.537 C 211.598 127.808,213.218 128.135,214.702 128.263 C 216.186 128.390,217.777 128.729,218.237 129.016 C 218.698 129.302,220.118 129.729,221.392 129.965 C 222.667 130.200,223.910 130.554,224.155 130.750 C 224.400 130.947,225.230 131.238,226.000 131.398 C 226.770 131.558,227.670 131.919,228.000 132.200 C 228.330 132.481,229.173 132.833,229.872 132.981 C 230.572 133.130,231.359 133.510,231.621 133.826 C 231.883 134.142,232.412 134.400,232.795 134.400 C 233.178 134.400,233.921 134.722,234.446 135.116 C 234.971 135.510,235.850 136.053,236.400 136.324 C 236.950 136.594,238.120 137.254,239.000 137.789 C 239.880 138.324,241.005 138.979,241.500 139.245 C 241.995 139.511,242.400 139.880,242.400 140.064 C 242.400 140.249,242.625 140.400,242.900 140.400 C 243.175 140.401,243.940 140.843,244.600 141.383 C 245.260 141.924,246.217 142.689,246.727 143.083 C 247.237 143.477,248.434 144.520,249.387 145.400 C 250.340 146.280,251.633 147.468,252.260 148.040 C 252.887 148.613,254.390 150.197,255.600 151.561 C 256.810 152.926,258.086 154.348,258.436 154.721 C 259.520 155.877,262.400 159.946,262.400 160.321 C 262.400 160.516,262.760 161.002,263.200 161.400 C 263.640 161.798,264.000 162.339,264.000 162.601 C 264.000 162.863,264.360 163.493,264.800 164.000 C 265.240 164.507,265.600 165.091,265.600 165.298 C 265.600 165.505,265.960 166.131,266.400 166.691 C 266.840 167.250,267.200 167.970,267.200 168.291 C 267.200 168.611,267.560 169.331,268.000 169.891 C 268.440 170.450,268.800 171.312,268.800 171.805 C 268.800 172.298,269.051 172.910,269.358 173.165 C 269.665 173.420,270.038 174.278,270.187 175.073 C 270.336 175.867,270.706 176.896,271.009 177.358 C 271.312 177.821,271.687 179.010,271.842 180.000 C 271.998 180.990,272.346 182.160,272.615 182.600 C 272.885 183.040,273.210 184.614,273.337 186.098 C 273.465 187.582,273.801 189.202,274.085 189.698 C 274.797 190.944,274.830 213.199,274.122 214.053 C 273.859 214.370,273.470 216.024,273.259 217.729 C 273.047 219.434,272.694 221.047,272.474 221.314 C 272.255 221.582,271.946 222.664,271.789 223.720 C 271.632 224.776,271.255 225.888,270.952 226.191 C 270.648 226.495,270.400 227.078,270.400 227.487 C 270.400 227.896,270.050 228.916,269.623 229.754 C 269.196 230.592,268.732 231.798,268.592 232.434 C 268.453 233.070,268.170 233.695,267.963 233.823 C 267.757 233.950,267.324 234.627,267.002 235.327 C 266.680 236.027,266.232 236.915,266.008 237.300 C 265.784 237.685,265.416 238.315,265.192 238.700 C 264.968 239.085,264.512 239.993,264.179 240.717 C 263.847 241.442,263.310 242.136,262.987 242.260 C 262.664 242.384,262.400 242.756,262.400 243.087 C 262.400 243.418,261.680 244.549,260.800 245.600 C 259.920 246.651,259.200 247.627,259.200 247.769 C 259.200 247.911,258.570 248.657,257.800 249.427 C 257.030 250.197,256.400 250.968,256.400 251.141 C 256.400 251.713,246.705 260.800,246.095 260.800 C 245.970 260.800,245.582 261.069,245.234 261.398 C 243.662 262.881,242.031 264.000,241.442 264.000 C 241.089 264.000,240.800 264.153,240.800 264.340 C 240.800 264.792,236.905 267.200,236.173 267.200 C 235.858 267.200,235.600 267.360,235.600 267.557 C 235.600 267.753,234.895 268.195,234.034 268.540 C 233.173 268.884,232.352 269.354,232.210 269.583 C 232.069 269.812,231.646 270.000,231.270 270.000 C 230.895 270.000,229.916 270.360,229.096 270.800 C 228.275 271.240,227.375 271.600,227.096 271.600 C 226.816 271.600,225.961 271.933,225.194 272.339 C 224.427 272.746,223.059 273.194,222.153 273.335 C 221.247 273.477,219.987 273.863,219.353 274.194 C 218.719 274.524,217.439 274.796,216.508 274.798 C 215.578 274.799,214.048 275.115,213.108 275.500 C 210.547 276.550,189.453 276.550,186.892 275.500 C 185.952 275.115,184.512 274.799,183.692 274.798 C 182.871 274.796,181.681 274.524,181.047 274.194 C 180.413 273.863,179.153 273.481,178.247 273.345 C 177.341 273.209,176.039 272.761,175.353 272.349 C 174.667 271.937,173.654 271.600,173.102 271.600 C 172.550 271.600,171.890 271.349,171.635 271.042 C 171.380 270.735,170.566 270.370,169.826 270.231 C 169.086 270.092,168.260 269.714,167.991 269.389 C 167.722 269.065,167.356 268.800,167.177 268.800 C 166.678 268.800,165.166 268.082,163.400 267.006 C 162.520 266.470,161.305 265.827,160.700 265.577 C 160.095 265.326,159.600 264.954,159.600 264.748 C 159.600 264.543,159.285 264.258,158.900 264.115 C 158.192 263.852,154.306 261.131,153.200 260.124 C 152.870 259.824,152.060 259.115,151.400 258.550 C 149.272 256.727,144.824 252.298,143.494 250.677 C 142.782 249.811,141.885 248.814,141.500 248.462 C 141.115 248.110,140.800 247.663,140.800 247.469 C 140.800 247.159,139.897 245.914,138.294 244.015 C 137.721 243.336,137.040 242.218,136.334 240.800 C 136.060 240.250,135.513 239.478,135.118 239.084 C 134.723 238.691,134.400 238.038,134.400 237.633 C 134.400 237.229,134.142 236.683,133.826 236.421 C 133.510 236.159,133.138 235.430,133.000 234.800 C 132.862 234.170,132.495 233.445,132.185 233.187 C 131.875 232.930,131.508 232.114,131.369 231.374 C 131.230 230.634,130.865 229.820,130.558 229.565 C 130.251 229.310,130.000 228.650,130.000 228.098 C 130.000 227.546,129.663 226.533,129.251 225.847 C 128.839 225.161,128.381 223.799,128.233 222.820 C 128.086 221.841,127.786 220.824,127.568 220.561 C 127.349 220.298,127.020 218.746,126.837 217.112 C 126.654 215.479,126.256 213.705,125.952 213.171 C 125.042 211.570,125.165 192.374,126.100 190.092 C 126.485 189.152,126.801 187.532,126.802 186.492 C 126.804 185.451,127.063 184.106,127.378 183.502 C 127.693 182.898,128.078 181.554,128.234 180.516 C 128.389 179.477,128.850 178.081,129.257 177.414 C 129.664 176.746,129.998 175.835,129.999 175.389 C 129.999 174.943,130.247 174.223,130.549 173.789 C 130.851 173.355,131.228 172.403,131.387 171.673 C 131.545 170.943,131.908 170.257,132.193 170.147 C 132.477 170.038,132.812 169.442,132.935 168.823 C 133.059 168.203,133.440 167.418,133.780 167.077 C 134.121 166.736,134.400 166.199,134.400 165.883 C 134.400 165.566,134.735 164.879,135.145 164.354 C 135.555 163.829,136.017 162.995,136.172 162.500 C 136.327 162.005,136.631 161.600,136.848 161.600 C 137.064 161.600,137.425 161.074,137.649 160.432 C 137.873 159.790,138.313 159.165,138.628 159.045 C 138.943 158.924,139.200 158.619,139.200 158.368 C 139.200 157.984,140.432 156.339,143.070 153.200 C 143.726 152.419,150.819 145.326,151.600 144.670 C 154.887 141.907,158.610 139.200,159.122 139.200 C 159.317 139.200,159.802 138.840,160.200 138.400 C 160.598 137.960,161.166 137.600,161.462 137.600 C 161.758 137.600,162.360 137.240,162.800 136.800 C 163.240 136.360,163.966 136.000,164.413 136.000 C 164.859 136.000,165.329 135.730,165.455 135.400 C 165.582 135.070,165.891 134.798,166.143 134.796 C 166.394 134.794,167.500 134.350,168.600 133.809 C 169.700 133.268,170.838 132.819,171.129 132.813 C 171.419 132.806,171.911 132.546,172.221 132.236 C 172.531 131.927,173.542 131.545,174.469 131.388 C 175.395 131.232,176.375 130.882,176.646 130.611 C 176.917 130.340,178.007 130.015,179.069 129.889 C 180.131 129.763,181.540 129.377,182.200 129.032 C 182.860 128.687,184.030 128.400,184.800 128.393 C 185.570 128.386,186.920 128.188,187.800 127.953 C 191.322 127.011,193.345 126.864,201.600 126.952 C 207.506 127.015,210.483 127.198,211.102 127.537 " stroke="none" fill="#fcfcfc" fill-rule="evenodd"></path><path id="path2" d="M195.300 127.487 C 195.905 127.578,196.895 127.578,197.500 127.487 C 198.105 127.395,197.610 127.320,196.400 127.320 C 195.190 127.320,194.695 127.395,195.300 127.487 M202.900 127.487 C 203.505 127.578,204.495 127.578,205.100 127.487 C 205.705 127.395,205.210 127.320,204.000 127.320 C 202.790 127.320,202.295 127.395,202.900 127.487 M125.724 198.200 C 125.726 199.520,125.801 200.012,125.890 199.293 C 125.979 198.574,125.977 197.494,125.886 196.893 C 125.795 196.292,125.722 196.880,125.724 198.200 M125.714 205.800 C 125.717 206.900,125.795 207.303,125.887 206.695 C 125.979 206.086,125.977 205.186,125.882 204.695 C 125.787 204.203,125.711 204.700,125.714 205.800 " stroke="none" fill="#848484" fill-rule="evenodd"></path><path id="path3" d="M195.400 127.614 C 188.338 128.254,178.408 130.324,182.120 130.382 C 182.736 130.392,183.726 130.157,184.320 129.860 C 188.278 127.883,211.264 127.828,215.800 129.785 C 216.460 130.070,217.965 130.424,219.144 130.571 C 220.323 130.719,221.673 131.083,222.144 131.380 C 222.615 131.678,223.630 132.052,224.400 132.212 C 225.170 132.372,226.155 132.749,226.589 133.051 C 227.023 133.353,227.743 133.598,228.189 133.594 C 228.728 133.591,228.463 133.338,227.400 132.842 C 221.769 130.213,214.890 128.647,204.400 127.606 C 200.238 127.193,200.047 127.193,195.400 127.614 M176.800 131.222 C 175.810 131.631,173.830 132.410,172.400 132.955 C 169.794 133.948,164.450 136.602,162.200 138.020 C 161.540 138.435,160.460 139.077,159.800 139.444 C 153.386 143.019,141.508 154.911,137.829 161.441 C 137.470 162.078,136.821 163.140,136.387 163.800 C 135.953 164.460,135.326 165.540,134.993 166.200 C 134.660 166.860,134.222 167.670,134.019 168.000 C 133.103 169.491,132.304 171.386,130.142 177.200 C 125.461 189.783,124.601 206.916,128.030 219.256 C 128.297 220.215,128.654 221.630,128.824 222.400 C 129.939 227.444,135.403 238.945,138.800 243.399 C 139.350 244.120,140.070 245.111,140.400 245.602 C 143.658 250.447,150.998 257.861,155.956 261.315 C 156.970 262.022,157.890 262.691,158.000 262.801 C 158.200 263.003,160.700 264.605,162.200 265.494 C 165.300 267.330,166.522 267.983,167.305 268.222 C 167.797 268.372,168.470 268.715,168.800 268.985 C 170.488 270.365,180.265 273.368,188.600 275.066 C 197.900 276.962,214.505 275.499,224.400 271.912 C 232.476 268.985,242.816 263.126,247.600 258.766 C 251.837 254.904,253.390 253.347,256.235 250.112 C 258.019 248.083,260.337 245.113,261.386 243.512 C 262.436 241.910,263.595 240.150,263.962 239.600 C 265.305 237.590,268.764 230.165,270.299 226.000 C 273.662 216.873,275.366 201.072,273.839 193.166 C 273.482 191.315,273.013 188.630,272.798 187.200 C 272.322 184.045,271.208 179.959,269.798 176.200 C 269.221 174.660,268.554 172.860,268.317 172.200 C 268.081 171.540,267.663 170.730,267.391 170.400 C 267.118 170.070,266.772 169.397,266.622 168.905 C 266.387 168.133,265.818 167.078,263.800 163.665 C 262.652 161.725,261.417 159.777,261.221 159.600 C 261.100 159.490,260.427 158.577,259.726 157.571 C 255.756 151.871,246.874 143.463,240.953 139.800 C 235.566 136.467,229.683 133.384,229.349 133.718 C 229.239 133.828,230.105 134.390,231.274 134.966 C 233.336 135.983,234.033 136.353,235.500 137.208 C 235.885 137.432,236.785 137.885,237.500 138.213 C 238.215 138.542,238.800 138.976,238.800 139.178 C 238.800 139.381,239.165 139.662,239.610 139.803 C 240.742 140.163,243.600 142.073,243.600 142.471 C 243.600 142.652,243.797 142.800,244.037 142.800 C 244.652 142.800,246.451 144.223,249.221 146.900 C 250.529 148.165,251.780 149.200,252.000 149.200 C 252.220 149.200,252.400 149.344,252.400 149.519 C 252.400 149.695,253.390 150.877,254.600 152.147 C 255.810 153.416,256.800 154.535,256.800 154.633 C 256.800 154.787,259.475 158.267,260.912 159.982 C 261.181 160.302,261.625 161.022,261.900 161.582 C 262.174 162.142,262.714 163.078,263.100 163.661 C 264.459 165.722,265.953 168.421,266.222 169.305 C 266.372 169.797,266.727 170.470,267.010 170.800 C 267.294 171.130,267.727 172.157,267.974 173.083 C 268.220 174.009,268.576 174.862,268.766 174.979 C 268.955 175.096,269.233 175.868,269.384 176.696 C 269.535 177.523,269.903 178.579,270.200 179.042 C 270.498 179.504,270.860 180.584,271.004 181.442 C 271.148 182.299,271.508 183.810,271.803 184.800 C 272.098 185.790,272.459 187.860,272.605 189.400 C 272.751 190.940,273.122 193.280,273.429 194.600 C 274.151 197.701,274.156 205.188,273.439 208.674 C 273.130 210.173,272.749 212.734,272.592 214.364 C 272.435 215.994,272.077 217.884,271.797 218.564 C 271.518 219.244,271.162 220.745,271.007 221.900 C 270.852 223.054,270.567 224.097,270.373 224.216 C 270.180 224.336,269.828 225.191,269.592 226.117 C 269.355 227.043,268.918 228.340,268.619 229.000 C 267.119 232.316,264.200 238.224,263.975 238.400 C 263.835 238.510,263.486 239.050,263.200 239.600 C 262.771 240.426,261.272 242.738,258.600 246.698 C 257.231 248.726,245.950 260.000,245.289 260.000 C 245.189 260.000,244.193 260.675,243.077 261.500 C 240.656 263.288,237.387 265.399,236.000 266.071 C 235.450 266.337,234.730 266.767,234.400 267.027 C 234.070 267.286,233.125 267.716,232.300 267.980 C 231.475 268.245,230.800 268.628,230.800 268.831 C 230.800 269.034,230.478 269.200,230.085 269.200 C 229.691 269.200,228.663 269.560,227.800 270.000 C 226.937 270.440,225.947 270.800,225.600 270.800 C 225.253 270.800,224.311 271.135,223.507 271.545 C 222.704 271.955,221.270 272.411,220.323 272.559 C 219.375 272.706,217.880 273.073,217.000 273.373 C 216.120 273.673,213.870 274.113,212.000 274.349 C 210.130 274.585,207.700 274.953,206.600 275.165 C 203.544 275.757,195.757 275.662,192.609 274.995 C 191.073 274.670,188.643 274.289,187.209 274.150 C 185.774 274.010,184.022 273.661,183.315 273.375 C 182.609 273.088,181.211 272.731,180.209 272.580 C 179.207 272.430,177.722 271.968,176.909 271.554 C 176.096 271.139,175.030 270.800,174.539 270.800 C 174.049 270.800,173.539 270.625,173.407 270.411 C 173.274 270.197,172.409 269.820,171.483 269.574 C 170.557 269.327,169.530 268.886,169.200 268.594 C 168.870 268.302,168.103 267.938,167.496 267.787 C 166.889 267.635,166.292 267.349,166.169 267.150 C 166.046 266.951,165.373 266.522,164.673 266.196 C 163.973 265.871,162.680 265.150,161.800 264.594 C 160.920 264.038,159.930 263.468,159.600 263.327 C 159.270 263.185,158.730 262.830,158.400 262.537 C 157.024 261.315,155.266 260.000,155.008 260.000 C 154.181 260.000,145.464 251.367,142.892 248.000 C 141.631 246.350,140.465 244.940,140.300 244.867 C 140.135 244.793,140.000 244.489,140.000 244.189 C 140.000 243.890,139.685 243.410,139.300 243.123 C 138.915 242.835,138.060 241.566,137.400 240.301 C 136.740 239.037,136.079 238.002,135.931 238.001 C 135.783 238.001,135.454 237.370,135.200 236.600 C 134.946 235.830,134.594 235.200,134.419 235.200 C 134.244 235.200,133.985 234.627,133.845 233.926 C 133.705 233.226,133.339 232.371,133.032 232.026 C 132.726 231.682,132.273 230.643,132.026 229.717 C 131.780 228.791,131.403 227.926,131.189 227.793 C 130.975 227.661,130.800 227.151,130.800 226.661 C 130.800 226.170,130.465 225.111,130.055 224.307 C 129.645 223.504,129.191 222.070,129.046 221.123 C 128.901 220.175,128.529 218.590,128.219 217.600 C 126.171 211.050,126.176 191.815,128.228 185.800 C 128.528 184.920,128.897 183.390,129.049 182.400 C 129.201 181.410,129.549 180.240,129.823 179.800 C 130.097 179.360,130.441 178.370,130.586 177.600 C 130.732 176.830,131.091 175.660,131.385 175.000 C 131.679 174.340,132.368 172.810,132.916 171.600 C 133.464 170.390,134.026 169.130,134.164 168.800 C 134.303 168.470,134.855 167.480,135.392 166.600 C 135.929 165.720,136.573 164.505,136.823 163.900 C 137.074 163.295,137.412 162.800,137.575 162.800 C 137.738 162.800,138.088 162.326,138.351 161.747 C 138.743 160.888,140.664 158.242,144.200 153.690 C 144.858 152.843,151.538 146.255,152.504 145.500 C 152.997 145.115,154.480 143.991,155.800 143.002 C 157.120 142.013,158.462 140.978,158.782 140.702 C 159.102 140.426,159.822 139.973,160.382 139.697 C 160.942 139.420,162.120 138.766,163.000 138.245 C 165.831 136.566,171.784 133.591,172.301 133.595 C 172.577 133.598,173.475 133.240,174.296 132.800 C 175.116 132.360,176.156 132.000,176.605 132.000 C 177.054 132.000,177.782 131.748,178.222 131.439 C 178.662 131.131,179.468 130.796,180.011 130.694 C 180.871 130.533,180.844 130.507,179.800 130.494 C 179.140 130.486,177.790 130.814,176.800 131.222 " stroke="none" fill="#747474" fill-rule="evenodd"></path><path id="path4" d="M191.200 127.192 C 190.210 127.375,188.680 127.717,187.800 127.953 C 186.920 128.188,185.570 128.386,184.800 128.393 C 184.030 128.400,182.860 128.687,182.200 129.032 C 181.540 129.377,180.131 129.763,179.069 129.889 C 178.007 130.015,176.917 130.340,176.646 130.611 C 176.375 130.882,175.395 131.232,174.469 131.388 C 173.542 131.545,172.531 131.927,172.221 132.236 C 171.911 132.546,171.419 132.806,171.129 132.813 C 170.838 132.819,169.700 133.268,168.600 133.809 C 167.500 134.350,166.394 134.794,166.143 134.796 C 165.891 134.798,165.582 135.070,165.455 135.400 C 165.329 135.730,164.859 136.000,164.413 136.000 C 163.966 136.000,163.240 136.360,162.800 136.800 C 162.360 137.240,161.758 137.600,161.462 137.600 C 161.166 137.600,160.598 137.960,160.200 138.400 C 159.802 138.840,159.317 139.200,159.122 139.200 C 158.610 139.200,154.887 141.907,151.600 144.670 C 150.819 145.326,143.726 152.419,143.070 153.200 C 140.432 156.339,139.200 157.984,139.200 158.368 C 139.200 158.619,138.943 158.924,138.628 159.045 C 138.313 159.165,137.873 159.790,137.649 160.432 C 137.425 161.074,137.064 161.600,136.848 161.600 C 136.631 161.600,136.327 162.005,136.172 162.500 C 136.017 162.995,135.555 163.829,135.145 164.354 C 134.735 164.879,134.400 165.566,134.400 165.883 C 134.400 166.199,134.121 166.736,133.780 167.077 C 133.440 167.418,133.059 168.203,132.935 168.823 C 132.812 169.442,132.477 170.038,132.193 170.147 C 131.908 170.257,131.545 170.943,131.387 171.673 C 131.228 172.403,130.851 173.355,130.549 173.789 C 130.247 174.223,129.999 174.943,129.999 175.389 C 129.998 175.835,129.664 176.746,129.257 177.414 C 128.850 178.081,128.389 179.477,128.234 180.516 C 128.078 181.554,127.693 182.898,127.378 183.502 C 127.063 184.106,126.804 185.451,126.802 186.492 C 126.801 187.532,126.485 189.152,126.100 190.092 C 125.165 192.374,125.042 211.570,125.952 213.171 C 126.256 213.705,126.654 215.479,126.837 217.112 C 127.020 218.746,127.349 220.298,127.568 220.561 C 127.786 220.824,128.086 221.841,128.233 222.820 C 128.381 223.799,128.839 225.161,129.251 225.847 C 129.663 226.533,130.000 227.546,130.000 228.098 C 130.000 228.650,130.251 229.310,130.558 229.565 C 130.865 229.820,131.230 230.634,131.369 231.374 C 131.508 232.114,131.875 232.930,132.185 233.187 C 132.495 233.445,132.862 234.170,133.000 234.800 C 133.138 235.430,133.510 236.159,133.826 236.421 C 134.142 236.683,134.400 237.229,134.400 237.633 C 134.400 238.038,134.723 238.691,135.118 239.084 C 135.513 239.478,136.060 240.250,136.334 240.800 C 137.040 242.218,137.721 243.336,138.294 244.015 C 139.897 245.914,140.800 247.159,140.800 247.469 C 140.800 247.663,141.115 248.110,141.500 248.462 C 141.885 248.814,142.782 249.811,143.494 250.677 C 144.824 252.298,149.272 256.727,151.400 258.550 C 152.060 259.115,152.870 259.824,153.200 260.124 C 154.306 261.131,158.192 263.852,158.900 264.115 C 159.285 264.258,159.600 264.543,159.600 264.748 C 159.600 264.954,160.095 265.326,160.700 265.577 C 161.305 265.827,162.520 266.470,163.400 267.006 C 165.166 268.082,166.678 268.800,167.177 268.800 C 167.356 268.800,167.722 269.065,167.991 269.389 C 168.260 269.714,169.086 270.092,169.826 270.231 C 170.566 270.370,171.380 270.735,171.635 271.042 C 171.890 271.349,172.550 271.600,173.102 271.600 C 173.654 271.600,174.667 271.937,175.353 272.349 C 176.039 272.761,177.341 273.209,178.247 273.345 C 179.153 273.481,180.413 273.863,181.047 274.194 C 181.681 274.524,182.871 274.796,183.692 274.798 C 184.512 274.799,185.952 275.115,186.892 275.500 C 189.453 276.550,210.547 276.550,213.108 275.500 C 214.048 275.115,215.578 274.799,216.508 274.798 C 217.439 274.796,218.719 274.524,219.353 274.194 C 219.987 273.863,221.247 273.477,222.153 273.335 C 223.059 273.194,224.427 272.746,225.194 272.339 C 225.961 271.933,226.816 271.600,227.096 271.600 C 227.375 271.600,228.275 271.240,229.096 270.800 C 229.916 270.360,230.895 270.000,231.270 270.000 C 231.646 270.000,232.069 269.812,232.210 269.583 C 232.352 269.354,233.173 268.884,234.034 268.540 C 234.895 268.195,235.600 267.753,235.600 267.557 C 235.600 267.360,235.858 267.200,236.173 267.200 C 236.894 267.200,240.800 264.795,240.800 264.352 C 240.800 264.171,239.945 264.545,238.900 265.182 C 237.051 266.309,229.405 270.169,227.800 270.786 C 221.634 273.155,220.368 273.502,211.723 275.200 C 204.194 276.678,191.735 276.227,183.400 274.174 C 178.249 272.906,177.374 272.625,171.400 270.318 C 169.268 269.495,165.931 267.931,165.600 267.600 C 165.490 267.490,164.770 267.086,164.000 266.702 C 162.442 265.926,162.153 265.747,158.421 263.239 C 155.117 261.018,152.782 259.170,150.051 256.612 C 146.464 253.254,141.227 247.641,141.209 247.136 C 141.204 246.991,140.473 245.952,139.585 244.828 C 138.696 243.704,137.521 241.942,136.973 240.911 C 136.425 239.881,135.749 238.759,135.470 238.419 C 134.824 237.630,132.287 232.411,131.281 229.800 C 128.100 221.552,127.852 220.572,126.000 209.000 C 125.789 207.680,125.616 204.440,125.616 201.800 C 125.616 199.160,125.789 195.920,126.000 194.600 C 128.135 181.256,129.098 177.982,133.584 168.800 C 135.894 164.074,135.803 164.232,138.774 159.824 C 142.670 154.044,148.843 147.394,153.838 143.598 C 155.137 142.610,156.290 141.711,156.400 141.600 C 156.656 141.341,159.284 139.606,161.600 138.165 C 164.403 136.423,169.503 133.913,172.800 132.655 C 174.450 132.025,176.430 131.270,177.200 130.976 C 177.970 130.683,179.230 130.332,180.000 130.196 C 180.770 130.060,182.210 129.694,183.200 129.383 C 189.276 127.473,202.118 126.650,208.256 127.777 C 209.985 128.095,212.480 128.479,213.800 128.631 C 215.120 128.783,216.650 129.086,217.200 129.304 C 217.750 129.522,219.190 129.936,220.400 130.224 C 223.262 130.905,227.271 132.311,227.769 132.809 C 227.984 133.024,228.402 133.200,228.697 133.200 C 230.239 133.200,237.190 137.123,245.060 142.435 C 248.408 144.694,257.314 153.677,259.699 157.200 C 260.220 157.970,261.266 159.509,262.023 160.620 C 264.047 163.589,264.337 164.060,265.087 165.600 C 265.462 166.370,265.968 167.270,266.213 167.600 C 266.457 167.930,267.152 169.370,267.757 170.800 C 268.361 172.230,269.019 173.760,269.217 174.200 C 270.189 176.352,272.189 182.700,272.809 185.600 L 273.108 187.000 273.154 185.189 C 273.179 184.193,272.957 183.023,272.659 182.589 C 272.362 182.155,271.992 180.990,271.839 180.000 C 271.685 179.010,271.312 177.821,271.009 177.358 C 270.706 176.896,270.336 175.867,270.187 175.073 C 270.038 174.278,269.665 173.420,269.358 173.165 C 269.051 172.910,268.800 172.298,268.800 171.805 C 268.800 171.312,268.440 170.450,268.000 169.891 C 267.560 169.331,267.200 168.611,267.200 168.291 C 267.200 167.970,266.840 167.250,266.400 166.691 C 265.960 166.131,265.600 165.505,265.600 165.298 C 265.600 165.091,265.240 164.507,264.800 164.000 C 264.360 163.493,264.000 162.863,264.000 162.601 C 264.000 162.339,263.640 161.798,263.200 161.400 C 262.760 161.002,262.400 160.516,262.400 160.321 C 262.400 159.946,259.520 155.877,258.436 154.721 C 258.086 154.348,256.810 152.926,255.600 151.561 C 254.390 150.197,252.887 148.613,252.260 148.040 C 251.633 147.468,250.340 146.280,249.387 145.400 C 248.434 144.520,247.237 143.477,246.727 143.083 C 246.217 142.689,245.260 141.924,244.600 141.383 C 243.940 140.843,243.175 140.401,242.900 140.400 C 242.625 140.400,242.400 140.249,242.400 140.064 C 242.400 139.880,241.995 139.511,241.500 139.245 C 241.005 138.979,239.880 138.324,239.000 137.789 C 238.120 137.254,236.950 136.594,236.400 136.324 C 235.850 136.053,234.971 135.510,234.446 135.116 C 233.921 134.722,233.178 134.400,232.795 134.400 C 232.412 134.400,231.883 134.142,231.621 133.826 C 231.359 133.510,230.572 133.130,229.872 132.981 C 229.173 132.833,228.330 132.481,228.000 132.200 C 227.670 131.919,226.770 131.558,226.000 131.398 C 225.230 131.238,224.400 130.947,224.155 130.750 C 223.910 130.554,222.667 130.200,221.392 129.965 C 220.118 129.729,218.698 129.302,218.237 129.016 C 217.777 128.729,216.186 128.390,214.702 128.263 C 213.218 128.135,211.598 127.808,211.102 127.537 C 210.027 126.949,194.019 126.672,191.200 127.192 M273.247 188.200 C 273.228 188.860,273.473 190.480,273.792 191.800 C 274.488 194.683,274.607 208.429,273.960 211.200 C 273.729 212.190,273.285 214.440,272.974 216.200 C 272.193 220.612,270.569 226.336,269.228 229.400 C 268.198 231.755,264.582 238.859,263.560 240.537 C 262.911 241.602,262.605 242.398,262.879 242.307 C 263.330 242.157,264.787 239.908,265.410 238.400 C 265.546 238.070,265.828 237.530,266.037 237.200 C 266.245 236.870,266.680 236.027,267.002 235.327 C 267.324 234.627,267.757 233.950,267.963 233.823 C 268.170 233.695,268.453 233.070,268.592 232.434 C 268.732 231.798,269.196 230.592,269.623 229.754 C 270.050 228.916,270.400 227.896,270.400 227.487 C 270.400 227.078,270.648 226.495,270.952 226.191 C 271.255 225.888,271.632 224.776,271.789 223.720 C 271.946 222.664,272.255 221.582,272.474 221.314 C 272.694 221.047,273.047 219.434,273.259 217.729 C 273.470 216.024,273.859 214.371,274.122 214.054 C 274.457 213.651,274.639 210.443,274.730 203.330 C 274.855 193.652,274.750 192.227,273.619 188.200 L 273.282 187.000 273.247 188.200 M260.600 245.048 C 257.842 248.753,256.322 250.485,252.389 254.400 C 248.470 258.302,247.502 259.149,243.452 262.220 C 242.160 263.199,241.324 264.000,241.594 264.000 C 242.054 264.000,243.797 262.754,245.234 261.398 C 245.582 261.069,245.970 260.800,246.095 260.800 C 246.705 260.800,256.400 251.713,256.400 251.141 C 256.400 250.968,257.030 250.197,257.800 249.427 C 258.570 248.657,259.200 247.911,259.200 247.769 C 259.200 247.627,259.936 246.633,260.834 245.559 C 261.733 244.485,262.408 243.447,262.334 243.253 C 262.261 243.058,261.480 243.866,260.600 245.048 " stroke="none" fill="#9c9c9c" fill-rule="evenodd"></path></g></svg>