<svg width="146" height="146" viewBox="0 0 146 146" fill="none" xmlns="http://www.w3.org/2000/svg">
<path d="M76.7709 145.92C34.4397 145.92 0 111.478 0 69.1487C0 39.8303 16.3208 13.4872 42.5964 0.403126C43.7797 -0.183274 45.2012 0.0444931 46.1313 0.974541C47.0623 1.90559 47.3026 3.32763 46.7222 4.50792C41.9276 14.2489 39.4981 24.7227 39.4981 35.6286C39.4981 74.5747 71.1816 106.26 110.123 106.26C121.152 106.26 131.725 103.773 141.562 98.8788C142.744 98.2909 144.166 98.5187 145.095 99.4487C146.031 100.381 146.265 101.803 145.683 102.982C132.669 129.465 106.26 145.92 76.7709 145.92Z" fill="#E5E5E5"/>
</svg>
