<svg width="402" height="244" viewBox="0 0 402 244" fill="none" xmlns="http://www.w3.org/2000/svg">
<ellipse cx="201" cy="122" rx="201" ry="122" fill="#89C1D2" fill-opacity="0.1"/>
<g filter="url(#filter0_d)">
<path d="M84.0312 80.9219C87.9375 80.9219 91.2188 81.7292 93.875 83.3438C96.5312 84.9062 99.4219 88.0573 102.547 92.7969H103.172L103.328 89.9062C103.693 82.7188 104.344 77.0677 105.281 72.9531L110.125 49.4375H140.672L114.891 171H90.75L91.5312 161.391H90.9062C87.9375 165.505 84.8125 168.396 81.5312 170.062C78.25 171.729 74.3958 172.562 69.9688 172.562C61.7396 172.562 55.4896 169.672 51.2188 163.891C46.9479 158.057 44.8125 149.698 44.8125 138.812C44.8125 129.542 46.6615 120.089 50.3594 110.453C54.1094 100.818 58.901 93.5 64.7344 88.5C70.5677 83.4479 77 80.9219 84.0312 80.9219ZM82.3906 148.266C84.9948 148.266 87.4688 146.755 89.8125 143.734C92.2083 140.661 94.1094 136.573 95.5156 131.469C96.9219 126.365 97.625 121.365 97.625 116.469C97.625 108.969 95.5417 105.219 91.375 105.219C88.8229 105.219 86.3229 106.755 83.875 109.828C81.4271 112.901 79.4479 116.964 77.9375 122.016C76.4271 127.016 75.6719 132.042 75.6719 137.094C75.6719 144.542 77.9115 148.266 82.3906 148.266ZM197.359 80.9219C200.276 80.9219 202.359 81.1302 203.609 81.5469L197.047 111.469C194.234 110.323 191.031 109.75 187.438 109.75C182.073 109.75 177.776 111.599 174.547 115.297C171.37 118.943 168.948 124.542 167.281 132.094L159 171H128.766L147.438 82.4844H171.578L170.172 97.25H170.797C174.182 91.4167 177.854 87.25 181.812 84.75C185.771 82.1979 190.953 80.9219 197.359 80.9219ZM221 171H190.766L209.438 82.4844H239.828L221 171ZM213.109 63.0312C213.109 57.6667 214.646 53.6042 217.719 50.8438C220.844 48.0833 225.193 46.7031 230.766 46.7031C235.505 46.7031 239.151 47.6667 241.703 49.5938C244.307 51.4688 245.609 54.1771 245.609 57.7188C245.609 62.9271 244.099 66.9635 241.078 69.8281C238.057 72.6406 233.708 74.0469 228.031 74.0469C218.083 74.0469 213.109 70.375 213.109 63.0312ZM232.844 209.438C227.115 209.438 221.724 208.734 216.672 207.328V183.656C219.953 184.594 223 185.062 225.812 185.062C229.667 185.062 232.583 184.281 234.562 182.719C236.542 181.156 237.896 178.682 238.625 175.297L253.469 105.219H240.5L243.859 90.375L258.625 82.875L259.875 77.0938C262.115 67.0938 265.917 59.8542 271.281 55.375C276.698 50.8438 283.885 48.5781 292.844 48.5781C297.01 48.5781 301.047 48.9948 304.953 49.8281C308.859 50.6615 312.193 51.7552 314.953 53.1094L307.219 73.7344C303.885 72.1198 300.526 71.3125 297.141 71.3125C295.318 71.3125 293.755 71.8073 292.453 72.7969C291.203 73.7344 290.37 75.1146 289.953 76.9375L288.703 82.4844H305.188L300.031 105.219H283.703L267.688 180.141C265.448 190.141 261.438 197.51 255.656 202.25C249.927 207.042 242.323 209.438 232.844 209.438ZM334.922 148.266C338.359 148.266 343.125 147.042 349.219 144.594V167.328C342.135 170.818 333.281 172.562 322.656 172.562C314.948 172.562 309.089 170.922 305.078 167.641C301.12 164.307 299.141 158.865 299.141 151.312C299.141 147.354 299.766 142.458 301.016 136.625L307.578 105.219H295.547L298.75 90.375L315.781 83.5L326.484 64.75H346.641L342.812 82.4844H365.312L360.391 105.219H337.812L331.25 135.141C330.417 139.151 330 141.885 330 143.344C330 146.625 331.641 148.266 334.922 148.266Z" fill="#FFC65C"/>
</g>
<defs>
<filter id="filter0_d" x="38.8125" y="42.7031" width="336.5" height="178.734" filterUnits="userSpaceOnUse" color-interpolation-filters="sRGB">
<feFlood flood-opacity="0" result="BackgroundImageFix"/>
<feColorMatrix in="SourceAlpha" type="matrix" values="0 0 0 0 0 0 0 0 0 0 0 0 0 0 0 0 0 0 127 0"/>
<feOffset dx="2" dy="4"/>
<feGaussianBlur stdDeviation="4"/>
<feColorMatrix type="matrix" values="0 0 0 0 1 0 0 0 0 0.705333 0 0 0 0 0.133333 0 0 0 0.8 0"/>
<feBlend mode="normal" in2="BackgroundImageFix" result="effect1_dropShadow"/>
<feBlend mode="normal" in="SourceGraphic" in2="effect1_dropShadow" result="shape"/>
</filter>
</defs>
</svg>
