<svg width="95" height="93" viewBox="0 0 95 93" fill="none" xmlns="http://www.w3.org/2000/svg">
<ellipse cx="47.5" cy="46.5" rx="47.5" ry="46.5" fill="#B3B3B3"/>
<ellipse cx="47.5" cy="46.5" rx="42.5" ry="41.5" fill="#C4C4C4"/>
<path d="M29 27.5001C29 31.0899 26.0899 34.0001 22.5 34.0001C18.9101 34.0001 16 31.0899 16 27.5001C16 23.9102 18.9101 21.0001 22.5 21.0001C26.0899 21.0001 29 23.9102 29 27.5001Z" fill="#AEAEAE"/>
<path d="M36 52.0001C36 58.6275 30.6274 64.0001 24 64.0001C17.3726 64.0001 12 58.6275 12 52.0001C12 45.3727 17.3726 40.0001 24 40.0001C30.6274 40.0001 36 45.3727 36 52.0001Z" fill="#BCBCBC"/>
<path d="M66 29.0002C66 37.2844 59.2843 44.0002 51 44.0002C42.7157 44.0002 36 37.2844 36 29.0002C36 20.7159 42.7157 14.0002 51 14.0002C59.2843 14.0002 66 20.7159 66 29.0002Z" fill="#BBBBBB"/>
<path d="M88 40.0001C88 44.9707 83.9706 49.0001 79 49.0001C74.0294 49.0001 70 44.9707 70 40.0001C70 35.0295 74.0294 31.0001 79 31.0001C83.9706 31.0001 88 35.0295 88 40.0001Z" fill="#B5B5B5"/>
<path d="M62 56.5001C62 61.7468 57.7467 66.0001 52.5 66.0001C47.2533 66.0001 43 61.7468 43 56.5001C43 51.2534 47.2533 47.0001 52.5 47.0001C57.7467 47.0001 62 51.2534 62 56.5001Z" fill="#C0C0C0"/>
<path d="M81 60.0001C81 63.3138 78.3137 66.0001 75 66.0001C71.6863 66.0001 69 63.3138 69 60.0001C69 56.6864 71.6863 54.0001 75 54.0001C78.3137 54.0001 81 56.6864 81 60.0001Z" fill="#B6B6B6"/>
</svg>
